<?xml version="1.0" standalone="no"?>
<!DOCTYPE svg PUBLIC "-//W3C//DTD SVG 20010904//EN"
 "http://www.w3.org/TR/2001/REC-SVG-20010904/DTD/svg10.dtd">
<svg version="1.0" xmlns="http://www.w3.org/2000/svg"
 width="700.000000pt" height="700.000000pt" viewBox="0 0 700.000000 700.000000"
 preserveAspectRatio="xMidYMid meet">
<metadata>
Created by potrace 1.11, written by Peter Selinger 2001-2013
</metadata>
<g transform="translate(0.000000,700.000000) scale(0.100000,-0.100000)"
fill="#000000" stroke="none">
<path d="M3230 6989 c-601 -49 -1170 -245 -1665 -574 -189 -126 -332 -242
-504 -410 -333 -325 -579 -676 -759 -1085 -305 -690 -379 -1446 -216 -2183
306 -1382 1439 -2456 2834 -2686 227 -38 322 -45 580 -45 258 0 353 7 580 45
983 162 1855 747 2392 1604 89 141 214 389 277 547 483 1216 253 2595 -600
3583 -96 112 -306 318 -419 412 -238 198 -538 383 -826 509 -517 226 -1120
328 -1674 283z m-852 -1332 c207 -72 348 -220 416 -436 18 -59 183 -611 367
-1228 184 -618 337 -1123 340 -1123 3 0 164 534 359 1188 194 653 363 1213
375 1244 64 159 220 301 395 358 285 93 604 -41 737 -308 36 -72 39 -86 324
-1800 159 -950 289 -1750 289 -1778 1 -267 -179 -448 -446 -447 -242 1 -372
90 -433 298 -16 54 -381 2515 -381 2568 0 7 -3 7 -9 2 -5 -6 -172 -579 -370
-1275 -235 -822 -374 -1291 -396 -1338 -58 -122 -169 -212 -301 -243 -66 -15
-219 -15 -285 1 -135 32 -243 118 -303 242 -24 50 -148 470 -397 1343 -199
699 -364 1272 -366 1274 -2 2 -5 2 -7 0 -2 -2 -83 -555 -181 -1229 -97 -674
-184 -1256 -192 -1295 -30 -134 -90 -235 -168 -281 -135 -79 -314 -92 -470
-33 -68 25 -160 108 -198 177 -33 60 -57 159 -56 232 0 30 129 832 287 1782
l288 1726 39 78 c68 139 211 257 370 307 76 24 92 26 200 22 75 -2 118 -9 173
-28z"/>
</g>
</svg>
